<svg width="45" height="45" viewBox="0 0 45 45" fill="none" xmlns="http://www.w3.org/2000/svg">
<path opacity="0.3" d="M20.9437 7.5H13.125V28.125H39.375V11.25H24.6937L20.9437 7.5Z" fill="white"/>
<path d="M39.375 7.5H26.25L22.5 3.75H13.125C11.0625 3.75 9.39375 5.4375 9.39375 7.5L9.375 28.125C9.375 30.1875 11.0625 31.875 13.125 31.875H39.375C41.4375 31.875 43.125 30.1875 43.125 28.125V11.25C43.125 9.1875 41.4375 7.5 39.375 7.5ZM39.375 28.125H13.125V7.5H20.9438L24.6938 11.25H39.375V28.125Z" fill="white"/>
<path d="M5.625 11.25H1.875V35.625C1.875 37.6875 3.5625 39.375 5.625 39.375H37.5V35.625H5.625V11.25Z" fill="white"/>
</svg>
