<svg width="37" height="37" viewBox="0 0 37 37" fill="none" xmlns="http://www.w3.org/2000/svg">
<path d="M24.2889 21.9764H23.071L22.6393 21.5601C24.1502 19.8026 25.0597 17.521 25.0597 15.0389C25.0597 9.50432 20.5735 5.01807 15.0389 5.01807C9.50432 5.01807 5.01807 9.50432 5.01807 15.0389C5.01807 20.5735 9.50432 25.0597 15.0389 25.0597C17.521 25.0597 19.8026 24.1502 21.5601 22.6393L21.9764 23.071V24.2889L29.6847 31.9818L31.9818 29.6847L24.2889 21.9764ZM15.0389 21.9764C11.2001 21.9764 8.1014 18.8776 8.1014 15.0389C8.1014 11.2001 11.2001 8.1014 15.0389 8.1014C18.8776 8.1014 21.9764 11.2001 21.9764 15.0389C21.9764 18.8776 18.8776 21.9764 15.0389 21.9764Z" fill="black" fill-opacity="0.26"/>
</svg>
